<svg width="60" height="60" viewBox="0 0 60 60" fill="none" xmlns="http://www.w3.org/2000/svg">
<rect width="60" height="60" rx="30" fill="white"/>
<path d="M26.0103 22.4817L26.4837 22.3207L26.1992 21.4839L25.6285 22.1588L26.0103 22.4817ZM31.9062 39.8247L31.4328 39.9857L31.7364 40.8786L32.3051 40.1262L31.9062 39.8247ZM49.4593 16.6016L44.1414 18.8497L48.7473 22.331L49.4593 16.6016ZM11.3119 40.6377L26.3921 22.8045L25.6285 22.1588L10.5483 39.992L11.3119 40.6377ZM25.5369 22.6426L31.4328 39.9857L32.3796 39.6638L26.4837 22.3207L25.5369 22.6426ZM32.3051 40.1262L47.1447 20.493L46.347 19.89L31.5073 39.5233L32.3051 40.1262Z" fill="#5C9FC6"/>
</svg>
