<svg width="921" height="330" viewBox="0 0 921 330" fill="none" xmlns="http://www.w3.org/2000/svg">
<path d="M380.95 59.7V165H355.3V59.7H380.95ZM438.988 59.7C450.088 59.7 459.788 61.9 468.088 66.3C476.388 70.7 482.788 76.9 487.288 84.9C491.888 92.8 494.188 101.95 494.188 112.35C494.188 122.65 491.888 131.8 487.288 139.8C482.788 147.8 476.338 154 467.938 158.4C459.638 162.8 449.988 165 438.988 165H399.538V59.7H438.988ZM437.338 142.8C447.038 142.8 454.588 140.15 459.988 134.85C465.388 129.55 468.088 122.05 468.088 112.35C468.088 102.65 465.388 95.1 459.988 89.7C454.588 84.3 447.038 81.6 437.338 81.6H425.188V142.8H437.338ZM534.172 80.25V101.55H568.522V121.35H534.172V144.45H573.022V165H508.522V59.7H573.022V80.25H534.172ZM655.225 146.4H615.925L609.625 165H582.775L620.875 59.7H650.575L688.675 165H661.525L655.225 146.4ZM648.625 126.6L635.575 88.05L622.675 126.6H648.625ZM725.92 145.2H759.52V165H700.27V59.7H725.92V145.2Z" fill="url(#paint0_linear_293_28)"/>
<path d="M446.5 210.7V316H420.85V272.65H380.95V316H355.3V210.7H380.95V251.95H420.85V210.7H446.5ZM490.667 231.25V252.55H525.017V272.35H490.667V295.45H529.517V316H465.017V210.7H529.517V231.25H490.667ZM611.719 297.4H572.419L566.119 316H539.269L577.369 210.7H607.069L645.169 316H618.019L611.719 297.4ZM605.119 277.6L592.069 239.05L579.169 277.6H605.119ZM682.415 296.2H716.015V316H656.765V210.7H682.415V296.2ZM803.999 210.7V231.25H776.099V316H750.449V231.25H722.549V210.7H803.999ZM908.072 210.7V316H882.422V272.65H842.522V316H816.872V210.7H842.522V251.95H882.422V210.7H908.072Z" fill="url(#paint1_linear_293_28)"/>
<path d="M136.74 241.537L157.066 200.967L177.023 268.885L154.99 308.182L136.74 241.537Z" fill="url(#paint2_linear_293_28)"/>
<path d="M205.11 199.859L220.262 60.1619L259.883 203.357L234.676 203.357L205.11 199.859Z" fill="url(#paint3_linear_293_28)"/>
<path d="M109.89 211.419C113.647 204.429 119.804 199.035 127.227 196.23L129.012 195.555C134.429 193.508 140.359 193.251 145.933 194.822V194.822C149.22 195.749 152.303 197.29 155.018 199.362L156.958 200.843C157.111 200.96 157.158 201.169 157.071 201.341L124.834 264.774C115.78 282.59 90.7259 283.652 80.1957 266.667V266.667L109.89 211.419Z" fill="url(#paint4_linear_293_28)"/>
<path d="M174.12 94.5762C175.084 83.9004 180.492 74.1218 189.023 67.631V67.631C195.622 62.6095 203.678 59.874 211.971 59.8382L219.706 59.8048C220.064 59.8032 220.347 60.1082 220.319 60.4654L202.415 288.732C201.634 298.685 195.756 307.524 186.88 312.093L186.624 312.224C181.155 315.039 174.911 315.972 168.859 314.879V314.879C164.521 314.095 160.43 312.297 156.92 309.632L155.329 308.424C155.031 308.197 154.87 307.833 154.903 307.459L174.12 94.5762Z" fill="url(#paint5_linear_293_28)"/>
<path d="M256.902 202.445L228.915 202.445C221.701 202.445 214.763 199.666 209.545 194.685V194.685V194.685C208.145 217.274 226.166 236.326 248.798 236.186L309.38 235.81C318.553 235.753 325.958 228.301 325.958 219.128V219.128C325.958 209.914 318.49 202.445 309.276 202.445L256.902 202.445Z" fill="url(#paint6_linear_293_28)"/>
<path d="M94.979 239.402L94.2403 234.967L60.6092 235.623L80.1965 266.668L94.979 239.402Z" fill="url(#paint7_linear_293_28)"/>
<path d="M16.6305 235.706C7.44575 235.706 -4.87008e-07 228.26 -8.88488e-07 219.076V219.076C-1.28997e-06 209.891 7.45452 202.445 16.6393 202.445C32.7543 202.445 44.6105 202.445 58.0204 202.445C78.431 202.445 94.9788 218.991 94.9788 239.402V239.402V239.402C91.8635 237.005 88.0434 235.706 84.113 235.706L16.6305 235.706Z" fill="url(#paint8_linear_293_28)"/>
<defs>
<linearGradient id="paint0_linear_293_28" x1="304.5" y1="97" x2="755" y2="138.5" gradientUnits="userSpaceOnUse">
<stop stop-color="#F718AB"/>
<stop offset="1" stop-color="#71BDF1"/>
</linearGradient>
<linearGradient id="paint1_linear_293_28" x1="392.264" y1="151" x2="585.255" y2="363.522" gradientUnits="userSpaceOnUse">
<stop stop-color="#F718AB"/>
<stop offset="1" stop-color="#6DBFF1"/>
</linearGradient>
<linearGradient id="paint2_linear_293_28" x1="146.332" y1="203.141" x2="156.697" y2="282.272" gradientUnits="userSpaceOnUse">
<stop stop-color="#4351B0"/>
<stop offset="0.36" stop-color="#2F387A"/>
<stop offset="1" stop-color="#1C224A"/>
</linearGradient>
<linearGradient id="paint3_linear_293_28" x1="207.327" y1="62.2828" x2="242.806" y2="207.523" gradientUnits="userSpaceOnUse">
<stop stop-color="#3D499F"/>
<stop offset="0.537379" stop-color="#252D62"/>
<stop offset="1" stop-color="#1C224A"/>
</linearGradient>
<linearGradient id="paint4_linear_293_28" x1="84.4854" y1="295.564" x2="49.154" y2="192.523" gradientUnits="userSpaceOnUse">
<stop stop-color="#F718AB"/>
<stop offset="1" stop-color="#71BDF1"/>
</linearGradient>
<linearGradient id="paint5_linear_293_28" x1="179.12" y1="316.646" x2="93.885" y2="98.3716" gradientUnits="userSpaceOnUse">
<stop stop-color="#F718AB"/>
<stop offset="1" stop-color="#77B8F0"/>
</linearGradient>
<linearGradient id="paint6_linear_293_28" x1="345.515" y1="225.268" x2="179.287" y2="225.268" gradientUnits="userSpaceOnUse">
<stop stop-color="#F718AB"/>
<stop offset="1" stop-color="#78BEF2"/>
</linearGradient>
<linearGradient id="paint7_linear_293_28" x1="77.5376" y1="231.153" x2="86.477" y2="265.009" gradientUnits="userSpaceOnUse">
<stop stop-color="#4351B0"/>
<stop offset="0.355" stop-color="#2D3777"/>
<stop offset="1" stop-color="#1C224A"/>
</linearGradient>
<linearGradient id="paint8_linear_293_28" x1="-3.99812e-07" y1="218.788" x2="115.844" y2="224.482" gradientUnits="userSpaceOnUse">
<stop stop-color="#F718AB"/>
<stop offset="1" stop-color="#72BCF1"/>
</linearGradient>
</defs>
</svg>
