<svg width="171" height="157" viewBox="0 0 171 157" fill="none" xmlns="http://www.w3.org/2000/svg">
<path opacity="0.2" d="M99.7107 0C114.602 30.8911 139.53 55.8189 170.421 70.7107C139.53 85.6024 114.602 110.53 99.7107 141.421C84.8189 110.53 59.8912 85.6024 29 70.7107C59.8912 55.8189 84.8189 30.8911 99.7107 0Z" fill="#787EA8"/>
<path opacity="0.2" d="M13.8674 113C21.8195 120.817 32.1874 125.705 43.2772 126.867C35.4606 134.82 30.5719 145.187 29.4097 156.277C21.4577 148.461 11.0898 143.572 -1.87387e-05 142.41C7.81655 134.458 12.7053 124.09 13.8674 113Z" fill="#787EA8"/>
<path opacity="0.2" d="M32.6277 23C33.6331 28.302 36.4069 33.1064 40.4959 36.6281C35.1939 37.6336 30.3895 40.4074 26.8678 44.4964C25.8623 39.1943 23.0885 34.39 18.9995 30.8682C24.3016 29.8628 29.1059 27.089 32.6277 23Z" fill="#787EA8"/>
<path opacity="0.2" d="M146.395 120.029C151.763 120.585 157.161 119.304 161.707 116.396C161.151 121.764 162.431 127.161 165.34 131.707C159.972 131.151 154.574 132.432 150.028 135.34C150.584 129.973 149.304 124.575 146.395 120.029Z" fill="#787EA8"/>
</svg>
